<svg width="20" height="14" viewBox="0 0 20 14" fill="none" xmlns="http://www.w3.org/2000/svg">
<path fill-rule="evenodd" clip-rule="evenodd" d="M0.585786 0.585786C0 1.17157 0 2.11438 0 4V10C0 11.8856 0 12.8284 0.585786 13.4142C1.17157 14 2.11438 14 4 14H16C17.8856 14 18.8284 14 19.4142 13.4142C20 12.8284 20 11.8856 20 10V4C20 2.11438 20 1.17157 19.4142 0.585786C18.8284 0 17.8856 0 16 0H4C2.11438 0 1.17157 0 0.585786 0.585786ZM3 2C2.44772 2 2 2.44772 2 3C2 3.55228 2.44772 4 3 4H5C5.55228 4 6 3.55228 6 3C6 2.44772 5.55228 2 5 2H3ZM14 11C14 10.4477 14.4477 10 15 10H17C17.5523 10 18 10.4477 18 11C18 11.5523 17.5523 12 17 12H15C14.4477 12 14 11.5523 14 11ZM11 7C11 7.55228 10.5523 8 10 8C9.44772 8 9 7.55228 9 7C9 6.44772 9.44772 6 10 6C10.5523 6 11 6.44772 11 7ZM13 7C13 8.65685 11.6569 10 10 10C8.34315 10 7 8.65685 7 7C7 5.34315 8.34315 4 10 4C11.6569 4 13 5.34315 13 7Z" fill="white"/>
</svg>
